<mxfile host="Electron" modified="2024-07-21T17:31:17.569Z" agent="Mozilla/5.0 (Windows NT 10.0; Win64; x64) AppleWebKit/537.36 (KHTML, like Gecko) draw.io/24.6.4 Chrome/124.0.6367.207 Electron/30.0.6 Safari/537.36" etag="BrmhqIJZ_DyAyLCqu-kC" version="24.6.4" type="device">
  <diagram name="Página-1" id="g-dJRJBOSSQMQyWxfpRW">
    <mxGraphModel dx="1195" dy="1866" grid="1" gridSize="10" guides="1" tooltips="1" connect="1" arrows="1" fold="1" page="1" pageScale="1" pageWidth="827" pageHeight="1169" math="0" shadow="0">
      <root>
        <mxCell id="0" />
        <mxCell id="1" parent="0" />
        <mxCell id="rkIjSIn0A7Uz1YH39WrG-1" value="Serviço -&amp;nbsp;&lt;span style=&quot;background-color: initial;&quot;&gt;Pedido&lt;/span&gt;" style="rounded=0;whiteSpace=wrap;html=1;fillColor=#1ba1e2;strokeColor=#006EAF;fontColor=#ffffff;" vertex="1" parent="1">
          <mxGeometry x="40" y="120" width="140" height="60" as="geometry" />
        </mxCell>
        <mxCell id="rkIjSIn0A7Uz1YH39WrG-2" value="Fila - PedidoCriado" style="shape=cylinder3;whiteSpace=wrap;html=1;boundedLbl=1;backgroundOutline=1;size=15;fillColor=#f0a30a;fontColor=#000000;strokeColor=#BD7000;" vertex="1" parent="1">
          <mxGeometry x="330" y="97" width="90" height="80" as="geometry" />
        </mxCell>
        <mxCell id="rkIjSIn0A7Uz1YH39WrG-3" style="edgeStyle=orthogonalEdgeStyle;rounded=0;orthogonalLoop=1;jettySize=auto;html=1;entryX=0;entryY=0;entryDx=0;entryDy=52.5;entryPerimeter=0;" edge="1" parent="1" source="rkIjSIn0A7Uz1YH39WrG-1" target="rkIjSIn0A7Uz1YH39WrG-2">
          <mxGeometry relative="1" as="geometry" />
        </mxCell>
        <mxCell id="rkIjSIn0A7Uz1YH39WrG-4" value="2 - Cria pedido em" style="edgeLabel;html=1;align=center;verticalAlign=middle;resizable=0;points=[];" vertex="1" connectable="0" parent="rkIjSIn0A7Uz1YH39WrG-3">
          <mxGeometry x="-0.1571" y="2" relative="1" as="geometry">
            <mxPoint x="3" y="-8" as="offset" />
          </mxGeometry>
        </mxCell>
        <mxCell id="rkIjSIn0A7Uz1YH39WrG-5" style="edgeStyle=orthogonalEdgeStyle;rounded=0;orthogonalLoop=1;jettySize=auto;html=1;" edge="1" parent="1" source="rkIjSIn0A7Uz1YH39WrG-9" target="rkIjSIn0A7Uz1YH39WrG-2">
          <mxGeometry relative="1" as="geometry" />
        </mxCell>
        <mxCell id="rkIjSIn0A7Uz1YH39WrG-6" value="3 - Lê pedido criado em" style="edgeLabel;html=1;align=center;verticalAlign=middle;resizable=0;points=[];" vertex="1" connectable="0" parent="rkIjSIn0A7Uz1YH39WrG-5">
          <mxGeometry x="0.0513" relative="1" as="geometry">
            <mxPoint x="3" y="-10" as="offset" />
          </mxGeometry>
        </mxCell>
        <mxCell id="rkIjSIn0A7Uz1YH39WrG-7" style="edgeStyle=orthogonalEdgeStyle;rounded=0;orthogonalLoop=1;jettySize=auto;html=1;exitX=1;exitY=0.75;exitDx=0;exitDy=0;entryX=1;entryY=0;entryDx=0;entryDy=52.5;entryPerimeter=0;" edge="1" parent="1" source="rkIjSIn0A7Uz1YH39WrG-9" target="rkIjSIn0A7Uz1YH39WrG-13">
          <mxGeometry relative="1" as="geometry" />
        </mxCell>
        <mxCell id="rkIjSIn0A7Uz1YH39WrG-8" value="4 - Registra pagamento com &lt;br&gt;status &quot;Pendente&quot;em" style="edgeLabel;html=1;align=center;verticalAlign=middle;resizable=0;points=[];" vertex="1" connectable="0" parent="rkIjSIn0A7Uz1YH39WrG-7">
          <mxGeometry x="0.1942" relative="1" as="geometry">
            <mxPoint y="-79" as="offset" />
          </mxGeometry>
        </mxCell>
        <mxCell id="rkIjSIn0A7Uz1YH39WrG-9" value="Serviço -&amp;nbsp;&lt;span style=&quot;background-color: initial;&quot;&gt;Pagamento&lt;/span&gt;" style="rounded=0;whiteSpace=wrap;html=1;fillColor=#1ba1e2;strokeColor=#006EAF;fontColor=#ffffff;" vertex="1" parent="1">
          <mxGeometry x="570" y="107" width="140" height="60" as="geometry" />
        </mxCell>
        <mxCell id="rkIjSIn0A7Uz1YH39WrG-10" style="edgeStyle=orthogonalEdgeStyle;rounded=0;orthogonalLoop=1;jettySize=auto;html=1;entryX=0.5;entryY=0;entryDx=0;entryDy=0;" edge="1" parent="1" source="rkIjSIn0A7Uz1YH39WrG-12" target="rkIjSIn0A7Uz1YH39WrG-9">
          <mxGeometry relative="1" as="geometry" />
        </mxCell>
        <mxCell id="rkIjSIn0A7Uz1YH39WrG-11" value="5 - Recusa pagamento em" style="edgeLabel;html=1;align=center;verticalAlign=middle;resizable=0;points=[];" vertex="1" connectable="0" parent="rkIjSIn0A7Uz1YH39WrG-10">
          <mxGeometry x="-0.2125" y="1" relative="1" as="geometry">
            <mxPoint as="offset" />
          </mxGeometry>
        </mxCell>
        <mxCell id="rkIjSIn0A7Uz1YH39WrG-12" value="Serviço Externo Pagamento" style="ellipse;shape=cloud;whiteSpace=wrap;html=1;fillColor=#e51400;fontColor=#ffffff;strokeColor=#B20000;" vertex="1" parent="1">
          <mxGeometry x="580" y="-40" width="120" height="80" as="geometry" />
        </mxCell>
        <mxCell id="rkIjSIn0A7Uz1YH39WrG-13" value="BD - Pagamento" style="shape=cylinder3;whiteSpace=wrap;html=1;boundedLbl=1;backgroundOutline=1;size=15;fillColor=#647687;fontColor=#ffffff;strokeColor=#314354;" vertex="1" parent="1">
          <mxGeometry x="630" y="380" width="70" height="80" as="geometry" />
        </mxCell>
        <mxCell id="rkIjSIn0A7Uz1YH39WrG-14" style="edgeStyle=orthogonalEdgeStyle;rounded=0;orthogonalLoop=1;jettySize=auto;html=1;entryX=0;entryY=0;entryDx=0;entryDy=52.5;entryPerimeter=0;exitX=0.25;exitY=1;exitDx=0;exitDy=0;" edge="1" parent="1" source="rkIjSIn0A7Uz1YH39WrG-9" target="rkIjSIn0A7Uz1YH39WrG-13">
          <mxGeometry relative="1" as="geometry" />
        </mxCell>
        <mxCell id="rkIjSIn0A7Uz1YH39WrG-15" value="6 - Recusa pagamento em" style="edgeLabel;html=1;align=center;verticalAlign=middle;resizable=0;points=[];" vertex="1" connectable="0" parent="rkIjSIn0A7Uz1YH39WrG-14">
          <mxGeometry x="-0.1901" y="-1" relative="1" as="geometry">
            <mxPoint y="54" as="offset" />
          </mxGeometry>
        </mxCell>
        <mxCell id="rkIjSIn0A7Uz1YH39WrG-16" value="Fila - Pagamento&lt;br&gt;Recusado" style="shape=cylinder3;whiteSpace=wrap;html=1;boundedLbl=1;backgroundOutline=1;size=15;fillColor=#f0a30a;fontColor=#000000;strokeColor=#BD7000;" vertex="1" parent="1">
          <mxGeometry x="330" y="193" width="90" height="80" as="geometry" />
        </mxCell>
        <mxCell id="rkIjSIn0A7Uz1YH39WrG-17" value="" style="edgeStyle=orthogonalEdgeStyle;rounded=0;orthogonalLoop=1;jettySize=auto;html=1;entryX=1;entryY=0.5;entryDx=0;entryDy=0;entryPerimeter=0;exitX=0;exitY=1;exitDx=0;exitDy=0;" edge="1" parent="1" source="rkIjSIn0A7Uz1YH39WrG-9" target="rkIjSIn0A7Uz1YH39WrG-16">
          <mxGeometry x="0.3996" y="7" relative="1" as="geometry">
            <mxPoint as="offset" />
          </mxGeometry>
        </mxCell>
        <mxCell id="rkIjSIn0A7Uz1YH39WrG-18" value="6 - Registra pagamento&lt;br&gt;recusado em" style="edgeLabel;html=1;align=center;verticalAlign=middle;resizable=0;points=[];" vertex="1" connectable="0" parent="rkIjSIn0A7Uz1YH39WrG-17">
          <mxGeometry x="-0.0832" relative="1" as="geometry">
            <mxPoint x="-37" y="16" as="offset" />
          </mxGeometry>
        </mxCell>
        <mxCell id="rkIjSIn0A7Uz1YH39WrG-19" value="BD - Pedido" style="shape=cylinder3;whiteSpace=wrap;html=1;boundedLbl=1;backgroundOutline=1;size=15;fillColor=#647687;fontColor=#ffffff;strokeColor=#314354;" vertex="1" parent="1">
          <mxGeometry x="350" y="-50" width="60" height="80" as="geometry" />
        </mxCell>
        <mxCell id="rkIjSIn0A7Uz1YH39WrG-20" style="edgeStyle=orthogonalEdgeStyle;rounded=0;orthogonalLoop=1;jettySize=auto;html=1;exitX=1;exitY=0;exitDx=0;exitDy=0;entryX=0.5;entryY=1;entryDx=0;entryDy=0;entryPerimeter=0;" edge="1" parent="1" source="rkIjSIn0A7Uz1YH39WrG-1" target="rkIjSIn0A7Uz1YH39WrG-19">
          <mxGeometry relative="1" as="geometry">
            <mxPoint x="350" y="15" as="targetPoint" />
          </mxGeometry>
        </mxCell>
        <mxCell id="rkIjSIn0A7Uz1YH39WrG-21" value="1 - Registra pedido com status&lt;br&gt;&quot;Aguardando Pagamento&quot; em" style="edgeLabel;html=1;align=center;verticalAlign=middle;resizable=0;points=[];" vertex="1" connectable="0" parent="rkIjSIn0A7Uz1YH39WrG-20">
          <mxGeometry x="0.2908" y="-3" relative="1" as="geometry">
            <mxPoint x="-40" y="-18" as="offset" />
          </mxGeometry>
        </mxCell>
        <mxCell id="rkIjSIn0A7Uz1YH39WrG-22" style="edgeStyle=orthogonalEdgeStyle;rounded=0;orthogonalLoop=1;jettySize=auto;html=1;entryX=0;entryY=0.5;entryDx=0;entryDy=0;entryPerimeter=0;exitX=1;exitY=1;exitDx=0;exitDy=0;" edge="1" parent="1" source="rkIjSIn0A7Uz1YH39WrG-1" target="rkIjSIn0A7Uz1YH39WrG-16">
          <mxGeometry relative="1" as="geometry" />
        </mxCell>
        <mxCell id="rkIjSIn0A7Uz1YH39WrG-23" value="7 - Lê pagamento recusado em" style="edgeLabel;html=1;align=center;verticalAlign=middle;resizable=0;points=[];" vertex="1" connectable="0" parent="rkIjSIn0A7Uz1YH39WrG-22">
          <mxGeometry x="0.2892" y="-2" relative="1" as="geometry">
            <mxPoint y="7" as="offset" />
          </mxGeometry>
        </mxCell>
        <mxCell id="rkIjSIn0A7Uz1YH39WrG-24" style="edgeStyle=orthogonalEdgeStyle;rounded=0;orthogonalLoop=1;jettySize=auto;html=1;entryX=0;entryY=1;entryDx=0;entryDy=-15;entryPerimeter=0;exitX=0.75;exitY=0;exitDx=0;exitDy=0;" edge="1" parent="1" source="rkIjSIn0A7Uz1YH39WrG-1" target="rkIjSIn0A7Uz1YH39WrG-19">
          <mxGeometry relative="1" as="geometry" />
        </mxCell>
        <mxCell id="rkIjSIn0A7Uz1YH39WrG-25" value="8 - Atualiza pedido para status &quot;Cancelado&quot;" style="edgeLabel;html=1;align=center;verticalAlign=middle;resizable=0;points=[];" vertex="1" connectable="0" parent="rkIjSIn0A7Uz1YH39WrG-24">
          <mxGeometry x="-0.0581" y="1" relative="1" as="geometry">
            <mxPoint x="48" y="-9" as="offset" />
          </mxGeometry>
        </mxCell>
        <mxCell id="rkIjSIn0A7Uz1YH39WrG-63" value="Cliente" style="shape=actor;whiteSpace=wrap;html=1;fillColor=#6d8764;fontColor=#ffffff;strokeColor=#3A5431;" vertex="1" parent="1">
          <mxGeometry x="20" y="-110" width="70" height="100" as="geometry" />
        </mxCell>
        <mxCell id="rkIjSIn0A7Uz1YH39WrG-64" style="edgeStyle=orthogonalEdgeStyle;rounded=0;orthogonalLoop=1;jettySize=auto;html=1;entryX=0.102;entryY=-0.04;entryDx=0;entryDy=0;entryPerimeter=0;exitX=0.5;exitY=1;exitDx=0;exitDy=0;" edge="1" parent="1" source="rkIjSIn0A7Uz1YH39WrG-63" target="rkIjSIn0A7Uz1YH39WrG-1">
          <mxGeometry relative="1" as="geometry" />
        </mxCell>
        <mxCell id="rkIjSIn0A7Uz1YH39WrG-65" value="1 - Cria pedido" style="edgeLabel;html=1;align=center;verticalAlign=middle;resizable=0;points=[];" vertex="1" connectable="0" parent="rkIjSIn0A7Uz1YH39WrG-64">
          <mxGeometry x="-0.0761" relative="1" as="geometry">
            <mxPoint x="1" y="-10" as="offset" />
          </mxGeometry>
        </mxCell>
      </root>
    </mxGraphModel>
  </diagram>
</mxfile>
